<?xml version="1.0" encoding="iso-8859-1"?>
<!-- Generator: Adobe Illustrator 19.0.0, SVG Export Plug-In . SVG Version: 6.00 Build 0)  -->
<svg version="1.1" xmlns="http://www.w3.org/2000/svg" xmlns:xlink="http://www.w3.org/1999/xlink" x="0px" y="0px"
	 viewBox="0 0 512 512" style="enable-background:new 0 0 512 512;" xml:space="preserve">
<g id="_x2014_&#x43B;&#x43E;&#x439;_x5F_1">
</g>
<g id="_x2014_&#x43B;&#x43E;&#x439;_x5F_2">
	<g id="XMLID_216_">
		<path id="XMLID_3_" style="fill:#EFAC6A;" d="M170.65,158.688L170.65,158.688c4.831,0,8.781-3.952,8.781-8.781v-33.789
			c0-4.831-3.951-8.781-8.781-8.781l0,0c-4.829,0-8.781,3.951-8.781,8.781v33.789C161.869,154.735,165.821,158.688,170.65,158.688z"
			/>
		<path id="XMLID_12_" style="fill:#EFAC6A;" d="M339.951,158.688L339.951,158.688c4.829,0,8.781-3.952,8.781-8.781v-33.789
			c0-4.831-3.952-8.781-8.781-8.781l0,0c-4.831,0-8.781,3.951-8.781,8.781v33.789C331.17,154.735,335.121,158.688,339.951,158.688z"
			/>
		<path id="XMLID_4_" style="fill:none;" d="M232.632,237.313c7.423,2.213,15.232,3.506,23.341,3.521v-0.056
			C247.885,240.759,240.07,239.496,232.632,237.313z"/>
		<path id="XMLID_15_" style="fill:#F9BF30;" d="M280.794,236.895c-7.779,2.451-16.011,3.894-24.633,3.894
			c-0.064,0-0.124-0.011-0.188-0.011v0.056c0.051,0,0.099,0.011,0.15,0.011C264.768,240.845,273.003,239.362,280.794,236.895z"/>
		<path id="XMLID_17_" style="fill:#F9CC9B;" d="M232.632,237.313c7.438,2.183,15.252,3.446,23.341,3.465v-82.099
			c-38.967-0.053-71.58-27.245-79.986-63.671c0.771-0.364,1.727-0.629,2.519-0.982h-4.547v64.748
			c0,30.591,16.703,57.241,41.664,71.505v-0.075C220.935,233.207,226.666,235.536,232.632,237.313z"/>
		<path id="XMLID_18_" style="fill:#EFAC6A;" d="M336.095,95.007c-8.414,36.46-40.996,63.68-80.012,63.68
			c-0.036,0-0.071-0.009-0.109-0.009v82.099c0.064,0,0.124,0.011,0.188,0.011c8.622,0,16.853-1.443,24.633-3.894
			c2.543-0.805,5.064-1.655,7.494-2.693c2.749-1.182,5.456-2.447,8.036-3.922h0.188c24.773-14.263,41.664-40.913,41.664-71.505
			V94.026h-4.598C334.37,94.379,335.323,94.643,336.095,95.007z"/>
		<g id="XMLID_214_">
			<path id="XMLID_19_" style="fill:#F9BF30;" d="M255.974,79.259V0.006c-63.348,0.047-114.67,24.798-114.67,55.359
				c0,15.014,12.574,28.714,32.656,38.661h4.547C198.877,84.939,226.006,79.273,255.974,79.259z"/>
			<path id="XMLID_20_" style="fill:#C18E1E;" d="M256.083,79.254c30.013,0,57.106,5.673,77.495,14.772h4.598
				c20.081-9.947,32.468-23.647,32.468-38.661C370.644,24.773,319.221,0,256.161,0c-0.064,0-0.124,0.006-0.188,0.006v79.254
				C256.011,79.259,256.045,79.254,256.083,79.254z"/>
		</g>
		<path id="XMLID_5_" style="fill:#333333;" d="M178.507,94.026c-0.792,0.353-1.747,0.617-2.519,0.982
			c8.406,36.426,41.019,63.619,79.986,63.671V94.026V79.259C226.006,79.273,198.877,84.939,178.507,94.026z"/>
		<path id="XMLID_11_" style="fill:#262625;" d="M333.578,94.026c-20.389-9.099-47.482-14.772-77.495-14.772
			c-0.038,0-0.071,0.006-0.109,0.006v14.766v64.653c0.038,0,0.073,0.009,0.109,0.009c39.016,0,71.599-27.221,80.012-63.68
			C335.323,94.643,334.37,94.379,333.578,94.026z"/>
		<path id="XMLID_34_" style="fill:#E2B77A;" d="M255.959,267.041l0.015-0.002v-26.205c-8.109-0.015-15.919-1.308-23.341-3.521
			c-5.957-1.749-11.69-4.043-17.009-7.034v22.609c0.315,0.236,0.557,0.465,0.867,0.629c0.013,0,0.026-0.004,0.026-0.004
			C228.16,262.586,242.018,267.041,255.959,267.041z"/>
		<path id="XMLID_36_" style="fill:#BC884B;" d="M256.124,240.845c-0.051,0-0.099-0.011-0.15-0.011v26.205
			c14.018-0.002,27.87-4.457,39.496-13.526l0,0c0,0,0.026,0.004,0.041,0.004c0.308-0.163,0.552-0.392,0.867-0.629v-22.602
			c-2.601,1.462-5.324,2.731-8.091,3.915c-2.429,1.042-4.949,1.892-7.494,2.693C273.003,239.362,264.768,240.845,256.124,240.845z"
			/>
		<path id="XMLID_59_" style="fill:#E2B77A;" d="M215.623,230.204v0.075c5.319,2.992,11.052,5.285,17.009,7.034
			C226.666,235.536,220.935,233.207,215.623,230.204z"/>
		<path id="XMLID_60_" style="fill:#E2B77A;" d="M288.288,234.201c-2.43,1.038-4.951,1.888-7.494,2.693
			C283.339,236.093,285.859,235.243,288.288,234.201z"/>
		<path id="XMLID_61_" style="fill:#3A3A3A;" d="M255.959,267.077c-13.941,0-27.799-4.455-39.429-13.53
			c-0.013-0.008-0.026-0.021-0.039-0.03c-52.964,0.024-114.659,42.961-114.659,95.927v138.839c0,13.068,10.592,23.66,23.66,23.66
			h130.482V267.075L255.959,267.077z"/>
		<path id="XMLID_62_" style="fill:#2B2B2B;" d="M410.169,488.283V349.444c0-52.966-61.695-95.903-114.657-95.927
			c-0.015,0.009-0.026,0.023-0.041,0.03c-11.627,9.07-25.479,13.526-39.496,13.528v244.869H386.51
			C399.576,511.944,410.169,501.351,410.169,488.283z"/>
		<path id="XMLID_63_" style="fill:#3A3A3A;" d="M255.959,267.077l0.015-0.002v-0.036l-0.015,0.002
			c-13.941,0-27.799-4.455-39.429-13.528c0,0-0.026,0.004-0.039,0.004c0.013,0.009,0.026,0.023,0.039,0.03
			C228.16,262.621,242.018,267.077,255.959,267.077z"/>
		<path id="XMLID_64_" style="fill:#3A3A3A;" d="M295.47,253.513c-11.627,9.069-25.479,13.524-39.496,13.526v0.036
			c14.018-0.002,27.87-4.457,39.496-13.528c0.015-0.008,0.026-0.021,0.041-0.03c-0.015,0-0.026-0.004-0.026-0.004H295.47z"/>
		<path id="XMLID_13_" style="fill:#D6D5D4;" d="M214.966,248.66l-20.507,7.441l38.173,48.685l23.341-37.747
			c0,0-20.652-3.607-26.776-6.745C224.906,258.096,214.966,248.66,214.966,248.66z"/>
		<path id="XMLID_14_" style="fill:#D6D5D4;" d="M296.983,248.66l20.506,7.441l-38.172,48.685l-23.343-37.747
			c0,0,20.654-3.607,26.776-6.745C287.042,258.096,296.983,248.66,296.983,248.66z"/>
		<polygon id="XMLID_16_" style="fill:#141414;" points="181.123,260.294 255.974,365.781 338.176,263.56 255.974,409.769 		"/>
		<g id="XMLID_203_">
			<path id="XMLID_22_" style="fill:#F9BF30;" d="M207.476,365.781h-46.835c-0.186,0-0.336-0.15-0.336-0.336v-29.533
				c0-0.186,0.15-0.336,0.336-0.336h46.835c0.186,0,0.336,0.15,0.336,0.336v29.533C207.812,365.631,207.662,365.781,207.476,365.781
				z"/>
			<path id="XMLID_25_" style="fill:#232323;" d="M201.745,340.169h-20.087c-0.522,0-0.935-0.413-0.935-0.937
				c0-0.522,0.413-0.935,0.935-0.935h20.087c0.522,0,0.935,0.413,0.935,0.935C202.679,339.756,202.266,340.169,201.745,340.169z"/>
			<path id="XMLID_26_" style="fill:#232323;" d="M201.745,343.812h-20.087c-0.522,0-0.935-0.413-0.935-0.935
				c0-0.524,0.413-0.935,0.935-0.935h20.087c0.522,0,0.935,0.411,0.935,0.935C202.679,343.399,202.266,343.812,201.745,343.812z"/>
			<path id="XMLID_56_" style="fill:#232323;" d="M201.745,347.455h-20.087c-0.522,0-0.935-0.413-0.935-0.935
				s0.413-0.935,0.935-0.935h20.087c0.522,0,0.935,0.413,0.935,0.935S202.266,347.455,201.745,347.455z"/>
			<path id="XMLID_119_" style="fill:#232323;" d="M201.745,351.098h-20.087c-0.522,0-0.935-0.413-0.935-0.935
				c0-0.522,0.413-0.935,0.935-0.935h20.087c0.522,0,0.935,0.413,0.935,0.935C202.679,350.685,202.266,351.098,201.745,351.098z"/>
			<ellipse id="XMLID_57_" style="fill:#232323;" cx="170.449" cy="343.812" rx="3.698" ry="3.643"/>
			<path id="XMLID_202_" style="fill:#232323;" d="M175.729,360.316h-10.561c-0.071,0-0.129-0.058-0.129-0.129v-13.538
				c0-0.071,0.058-0.129,0.129-0.129h10.561c0.071,0,0.129,0.058,0.129,0.129v13.538
				C175.858,360.258,175.801,360.316,175.729,360.316z"/>
		</g>
		<path id="XMLID_206_" style="fill:#141414;" d="M141.3,348.727c-2.594,0-4.692,2.098-4.692,4.692V512h9.384V353.419
			C145.992,350.825,143.893,348.727,141.3,348.727z"/>
		<path id="XMLID_205_" style="fill:#141414;" d="M375.336,348.727c-2.594,0-4.692,2.098-4.692,4.692V512h9.384V353.419
			C380.028,350.825,377.93,348.727,375.336,348.727z"/>
		<g id="XMLID_207_">
			<rect id="XMLID_204_" x="219.581" y="39.303" style="fill:#141414;" width="14.558" height="14.076"/>
			<rect id="XMLID_208_" x="234.139" y="53.379" style="fill:#141414;" width="14.556" height="14.076"/>
			<rect id="XMLID_209_" x="248.696" y="39.303" style="fill:#141414;" width="14.556" height="14.076"/>
			<rect id="XMLID_210_" x="263.252" y="53.379" style="fill:#141414;" width="14.558" height="14.076"/>
			<rect id="XMLID_213_" x="277.81" y="39.303" style="fill:#141414;" width="14.556" height="14.076"/>
		</g>
	</g>
</g>
</svg>
