<?xml version="1.0" encoding="UTF-8" standalone="no"?>
<svg width="400px" height="232px" viewBox="0 0 400 232" version="1.1" xmlns="http://www.w3.org/2000/svg" xmlns:xlink="http://www.w3.org/1999/xlink">
    <!-- Generator: Sketch 3.8.3 (29802) - http://www.bohemiancoding.com/sketch -->
    <title>Build_IMG</title>
    <desc>Created with Sketch.</desc>
    <defs>
        <polygon id="path-1" points="0 232 400 232 400 0 0 0"></polygon>
    </defs>
    <g id="Page-1" stroke="none" stroke-width="1" fill="none" fill-rule="evenodd">
        <g id="dash-alt-2-copy-3" transform="translate(-861.000000, -701.000000)">
            <g id="Build_IMG" transform="translate(861.000000, 701.000000)">
                <polygon id="Fill-1" fill="#343436" points="0 232 400 232 400 0 0 0"></polygon>
                <polygon id="Fill-2" fill="#F9BA00" points="202.0756 55.2528 216.45 55.2528 216.45 24.568 213.6372 23.992 209.3172 25.624 204.9972 23.896 202.0756 24.952"></polygon>
                <polygon id="Fill-3" fill="#F89E00" points="212.19768 55.31568 216.43848 55.31568 216.43848 24.47568 213.72568 23.72448 212.19768 24.47568"></polygon>
                <polygon id="Fill-4" fill="#F4A800" points="202.80328 55.31568 207.04328 55.31568 207.14888 24.57008 204.89448 23.81888 202.45128 24.94608"></polygon>
                <polygon id="Fill-5" fill="#F9BA00" points="305.05128 44.34984 305.05128 30.05464 183.42728 30.14264 183.44728 44.44664"></polygon>
                <path d="M288.53208,58.6636 L288.53208,44.3636 L288.53208,58.6636 Z" id="Fill-6" fill="#FFFFFF"></path>
                <polygon id="Fill-7" fill="#174F78" points="288.3072 58.6632 288.756 58.6632 288.756 44.3632 288.3072 44.3632"></polygon>
                <path d="M285.57648,58.6636 L285.57648,44.3636 L285.57648,58.6636 Z" id="Fill-8" fill="#FFFFFF"></path>
                <polygon id="Fill-9" fill="#174F78" points="285.3528 58.6632 285.8016 58.6632 285.8016 44.3632 285.3528 44.3632"></polygon>
                <g id="Group-101">
                    <path d="M290.00256,58.68704 C290.00256,56.93024 288.54816,55.50624 286.75376,55.50624 C284.95936,55.50624 283.50496,56.93024 283.50496,58.68704 C283.50496,60.44384 284.95936,61.86864 286.75376,61.86864 C288.54816,61.86864 290.00256,60.44384 290.00256,58.68704 L290.00256,58.68704 Z" id="Fill-10" fill="#FFFFFF"></path>
                    <path d="M286.75368,55.72784 C285.08408,55.72784 283.72648,57.05504 283.72648,58.68704 C283.72648,60.31904 285.08408,61.64624 286.75368,61.64624 C288.42328,61.64624 289.78088,60.31904 289.78088,58.68704 C289.78088,57.05504 288.42328,55.72784 286.75368,55.72784 M286.75368,62.09024 C284.84008,62.09024 283.28328,60.56304 283.28328,58.68704 C283.28328,56.81104 284.84008,55.28384 286.75368,55.28384 C288.66728,55.28384 290.22408,56.81104 290.22408,58.68704 C290.22408,60.56304 288.66728,62.09024 286.75368,62.09024" id="Fill-12" fill="#F8941E"></path>
                    <path d="M289.87504,58.68704 C289.87504,56.96304 288.47744,55.56544 286.75344,55.56544 C285.02944,55.56544 283.63264,56.96304 283.63264,58.68704 C283.63264,60.41104 285.02944,61.80864 286.75344,61.80864 C288.47744,61.80864 289.87504,60.41104 289.87504,58.68704" id="Fill-14" fill="#FFBD35"></path>
                    <polygon id="Fill-16" fill="#F4A800" points="305.18992 40.28424 184.23872 40.28424 184.23872 30.32344 305.05072 30.32344"></polygon>
                    <mask id="mask-2" fill="white">
                        <use xlink:href="#path-1"></use>
                    </mask>
                    <g id="Clip-19"></g>
                    <polygon id="Fill-18" fill="#F49000" mask="url(#mask-2)" points="202.0752 45.992 216.436 45.992 216.436 44.4464 202.0752 44.4464"></polygon>
                    <path d="M189.23608,43.52488 C189.09128,43.52488 188.97288,43.40728 188.97288,43.26168 L188.97288,41.47208 C188.97288,41.32648 189.09128,41.20888 189.23608,41.20888 C189.38088,41.20888 189.49928,41.32648 189.49928,41.47208 L189.49928,43.26168 C189.49928,43.40728 189.38088,43.52488 189.23608,43.52488" id="Fill-20" fill="#FFFFFF" mask="url(#mask-2)"></path>
                    <path d="M197.80584,43.52488 C197.66104,43.52488 197.54264,43.40728 197.54264,43.26168 L197.54264,41.47208 C197.54264,41.32648 197.66104,41.20888 197.80584,41.20888 C197.95064,41.20888 198.06904,41.32648 198.06904,41.47208 L198.06904,43.26168 C198.06904,43.40728 197.95064,43.52488 197.80584,43.52488" id="Fill-21" fill="#FFFFFF" mask="url(#mask-2)"></path>
                    <path d="M206.3768,43.52488 C206.232,43.52488 206.1136,43.40728 206.1136,43.26168 L206.1136,41.47208 C206.1136,41.32648 206.232,41.20888 206.3768,41.20888 C206.5216,41.20888 206.64,41.32648 206.64,41.47208 L206.64,43.26168 C206.64,43.40728 206.5216,43.52488 206.3768,43.52488" id="Fill-22" fill="#FFFFFF" mask="url(#mask-2)"></path>
                    <path d="M214.94656,43.52488 C214.80176,43.52488 214.68336,43.40728 214.68336,43.26168 L214.68336,41.47208 C214.68336,41.32648 214.80176,41.20888 214.94656,41.20888 C215.09136,41.20888 215.20976,41.32648 215.20976,41.47208 L215.20976,43.26168 C215.20976,43.40728 215.09136,43.52488 214.94656,43.52488" id="Fill-23" fill="#FFFFFF" mask="url(#mask-2)"></path>
                    <path d="M223.51688,43.52488 C223.37208,43.52488 223.25368,43.40728 223.25368,43.26168 L223.25368,41.47208 C223.25368,41.32648 223.37208,41.20888 223.51688,41.20888 C223.66168,41.20888 223.78008,41.32648 223.78008,41.47208 L223.78008,43.26168 C223.78008,43.40728 223.66168,43.52488 223.51688,43.52488" id="Fill-24" fill="#FFFFFF" mask="url(#mask-2)"></path>
                    <path d="M232.08728,43.52488 C231.94248,43.52488 231.82408,43.40728 231.82408,43.26168 L231.82408,41.47208 C231.82408,41.32648 231.94248,41.20888 232.08728,41.20888 C232.23208,41.20888 232.35048,41.32648 232.35048,41.47208 L232.35048,43.26168 C232.35048,43.40728 232.23208,43.52488 232.08728,43.52488" id="Fill-25" fill="#FFFFFF" mask="url(#mask-2)"></path>
                    <path d="M240.65768,43.52488 C240.51288,43.52488 240.39448,43.40728 240.39448,43.26168 L240.39448,41.47208 C240.39448,41.32648 240.51288,41.20888 240.65768,41.20888 C240.80248,41.20888 240.92088,41.32648 240.92088,41.47208 L240.92088,43.26168 C240.92088,43.40728 240.80248,43.52488 240.65768,43.52488" id="Fill-26" fill="#FFFFFF" mask="url(#mask-2)"></path>
                    <path d="M249.22744,43.52488 C249.08264,43.52488 248.96424,43.40728 248.96424,43.26168 L248.96424,41.47208 C248.96424,41.32648 249.08264,41.20888 249.22744,41.20888 C249.37224,41.20888 249.49064,41.32648 249.49064,41.47208 L249.49064,43.26168 C249.49064,43.40728 249.37224,43.52488 249.22744,43.52488" id="Fill-27" fill="#FFFFFF" mask="url(#mask-2)"></path>
                    <path d="M257.7984,43.52488 C257.6536,43.52488 257.5352,43.40728 257.5352,43.26168 L257.5352,41.47208 C257.5352,41.32648 257.6536,41.20888 257.7984,41.20888 C257.9432,41.20888 258.0616,41.32648 258.0616,41.47208 L258.0616,43.26168 C258.0616,43.40728 257.9432,43.52488 257.7984,43.52488" id="Fill-28" fill="#FFFFFF" mask="url(#mask-2)"></path>
                    <path d="M266.36816,43.52488 C266.22336,43.52488 266.10496,43.40728 266.10496,43.26168 L266.10496,41.47208 C266.10496,41.32648 266.22336,41.20888 266.36816,41.20888 C266.51296,41.20888 266.63136,41.32648 266.63136,41.47208 L266.63136,43.26168 C266.63136,43.40728 266.51296,43.52488 266.36816,43.52488" id="Fill-29" fill="#FFFFFF" mask="url(#mask-2)"></path>
                    <path d="M274.93912,43.52488 C274.79432,43.52488 274.67592,43.40728 274.67592,43.26168 L274.67592,41.47208 C274.67592,41.32648 274.79432,41.20888 274.93912,41.20888 C275.08392,41.20888 275.20232,41.32648 275.20232,41.47208 L275.20232,43.26168 C275.20232,43.40728 275.08392,43.52488 274.93912,43.52488" id="Fill-30" fill="#FFFFFF" mask="url(#mask-2)"></path>
                    <path d="M283.50888,43.52488 C283.36408,43.52488 283.24568,43.40728 283.24568,43.26168 L283.24568,41.47208 C283.24568,41.32648 283.36408,41.20888 283.50888,41.20888 C283.65368,41.20888 283.77208,41.32648 283.77208,41.47208 L283.77208,43.26168 C283.77208,43.40728 283.65368,43.52488 283.50888,43.52488" id="Fill-31" fill="#FFFFFF" mask="url(#mask-2)"></path>
                    <path d="M292.07928,43.52488 C291.93448,43.52488 291.81608,43.40728 291.81608,43.26168 L291.81608,41.47208 C291.81608,41.32648 291.93448,41.20888 292.07928,41.20888 C292.22408,41.20888 292.34248,41.32648 292.34248,41.47208 L292.34248,43.26168 C292.34248,43.40728 292.22408,43.52488 292.07928,43.52488" id="Fill-32" fill="#FFFFFF" mask="url(#mask-2)"></path>
                    <path d="M300.6496,43.52488 C300.5048,43.52488 300.3864,43.40728 300.3864,43.26168 L300.3864,41.47208 C300.3864,41.32648 300.5048,41.20888 300.6496,41.20888 C300.7944,41.20888 300.9128,41.32648 300.9128,41.47208 L300.9128,43.26168 C300.9128,43.40728 300.7944,43.52488 300.6496,43.52488" id="Fill-33" fill="#FFFFFF" mask="url(#mask-2)"></path>
                    <path d="M190.12128,35.99304 C190.12128,35.07384 189.37568,34.32824 188.45648,34.32824 C187.53728,34.32824 186.79088,35.07384 186.79088,35.99304 C186.79088,36.91224 187.53728,37.65784 188.45648,37.65784 C189.37568,37.65784 190.12128,36.91224 190.12128,35.99304" id="Fill-34" fill="#F8F1E3" mask="url(#mask-2)"></path>
                    <path d="M209.52168,26.1204 C205.35288,24.0436 204.59048,24.2132 204.21368,24.4012 L201.83608,25.3092 C202.56168,24.0252 204.45288,20.6644 206.16808,17.6124 L212.38328,17.6052 L216.68968,25.106 L214.41448,24.3932 C214.40488,24.3884 214.39528,24.3836 214.38648,24.3788 C213.93368,24.1644 213.46648,23.9396 209.52168,26.1204" id="Fill-35" fill="#FFFFFF" mask="url(#mask-2)"></path>
                    <path d="M209.30456,12 L209.33176,12.0728 L212.43176,17.4744 L206.24136,17.4792 C207.67176,14.9272 208.83576,12.8472 209.30456,12" id="Fill-36" fill="#174F78" mask="url(#mask-2)"></path>
                    <polygon id="Fill-37" fill="#F99A1C" mask="url(#mask-2)" points="207.368 52.6808 212.0032 52.6808 212.0032 51.9528 207.368 51.9528"></polygon>
                    <polygon id="Fill-38" fill="#F99A1C" mask="url(#mask-2)" points="207.368 48.4216 212.0032 48.4216 212.0032 47.6936 207.368 47.6936"></polygon>
                    <path d="M248.8552,101.64312 C248.5536,101.64312 248.2608,101.48632 248.1,101.20632 C247.8608,100.78952 248.004,100.25832 248.4208,100.01832 L286.3808,78.19592 C286.7968,77.95512 287.3288,78.09992 287.568,78.51592 C287.808,78.93272 287.664,79.46472 287.248,79.70392 L249.288,101.52712 C249.1512,101.60552 249.0024,101.64312 248.8552,101.64312" id="Fill-39" fill="#003D54" mask="url(#mask-2)"></path>
                    <path d="M286.8532,82.89312 C281.286,82.89312 276.7572,78.36352 276.7572,72.79712 C276.7572,67.90512 280.2532,63.81552 284.8772,62.89392 L284.8772,59.89872 C284.8772,58.80752 285.762,57.92352 286.8532,57.92352 C287.9444,57.92352 288.8292,58.80752 288.8292,59.89872 L288.8292,64.67552 C288.8292,65.76672 287.9444,66.65152 286.8532,66.65152 C283.4652,66.65152 280.7084,69.40832 280.7084,72.79712 C280.7084,76.18512 283.4652,78.94192 286.8532,78.94192 C287.97,78.94192 289.0628,78.63952 290.0132,78.06912 C290.9484,77.50672 292.162,77.80992 292.7244,78.74432 C293.286,79.68032 292.9836,80.89392 292.0484,81.45552 C290.4836,82.39632 288.6876,82.89312 286.8532,82.89312" id="Fill-40" fill="#FFBD35" mask="url(#mask-2)"></path>
                    <path d="M286.91048,81.84784 C281.98328,81.84784 277.97448,77.83904 277.97448,72.91184 C277.97448,68.66224 280.99688,64.97584 285.16088,64.14624 L286.09448,63.96064 L286.09448,60.01344 C286.09448,59.56384 286.46008,59.19824 286.91048,59.19824 C287.36008,59.19824 287.72568,59.56384 287.72568,60.01344 L287.72568,64.79024 C287.72568,65.24064 287.36008,65.60624 286.91048,65.60624 C282.88248,65.60624 279.60568,68.88384 279.60568,72.91184 C279.60568,76.93904 282.88248,80.21664 286.91048,80.21664 C288.23848,80.21664 289.53688,79.85744 290.66808,79.17824 C290.79688,79.10064 290.93768,79.06144 291.08648,79.06144 C291.37608,79.06144 291.63848,79.20944 291.78728,79.45664 C291.89928,79.64384 291.93208,79.86304 291.87928,80.07424 C291.82648,80.28544 291.69528,80.46384 291.50808,80.57584 C290.12408,81.40784 288.53368,81.84784 286.91048,81.84784" id="Fill-41" fill="#F89E00" mask="url(#mask-2)"></path>
                    <path d="M320.48928,95.8428 C320.36288,95.8428 320.23488,95.8148 320.11328,95.7564 L285.79328,78.9212 C285.36048,78.7132 285.53088,78.7156 285.73888,78.2828 C285.94688,77.8492 286.46688,77.6668 286.89968,77.8748 L320.86608,94.1876 C321.29968,94.3956 321.48208,94.9156 321.27408,95.3492 C321.12448,95.6604 320.81328,95.8428 320.48928,95.8428" id="Fill-42" fill="#6E8889" mask="url(#mask-2)"></path>
                    <polygon id="Fill-43" mask="url(#mask-2)" points="142.2152 214.3304 207.784 214.3304 207.784 212.0272 142.2152 212.0272"></polygon>
                    <path d="M262.96064,57.58968 C262.96064,55.51448 261.28864,53.83208 259.22624,53.83208 L87.73024,53.83208 C85.66864,53.83208 83.99584,55.51448 83.99584,57.58968 L83.99584,174.23128 L262.96064,174.23128 L262.96064,57.58968 Z" id="Fill-45" fill="#174F78" mask="url(#mask-2)"></path>
                    <path d="M83.99616,174.23104 L83.99616,182.12064 C83.99616,184.19584 85.66816,185.87824 87.73056,185.87824 L259.22656,185.87824 C261.28896,185.87824 262.96096,184.19584 262.96096,182.12064 L262.96096,174.23104 L83.99616,174.23104 Z" id="Fill-46" fill="#FFFFFF" mask="url(#mask-2)"></path>
                    <polygon id="Fill-47" fill="#DFF6F8" mask="url(#mask-2)" points="91.1048 167.8264 255.852 167.8264 255.852 60.7568 91.1048 60.7568"></polygon>
                    <path d="M211.52608,209.05296 C209.24608,207.33536 205.95888,205.56416 204.11248,203.33456 C199.48608,197.74576 200.07088,186.14896 200.07088,186.14896 L152.76528,186.14896 C152.76528,186.14896 153.35088,197.74576 148.72368,203.33456 C146.87728,205.56416 143.59008,207.33536 141.31008,209.05296 C140.99248,209.29216 140.79968,209.63456 140.72208,210.00496 L212.11408,210.00496 C212.03568,209.63456 211.84288,209.29216 211.52608,209.05296" id="Fill-48" fill="#D2DEDE" mask="url(#mask-2)"></path>
                    <path d="M140.72168,210.00512 C140.66328,210.27872 140.66088,210.56592 140.75448,210.84512 C140.97368,211.49952 141.58648,211.94032 142.27688,211.94032 L210.55848,211.94032 C211.24968,211.94032 211.86248,211.49952 212.08168,210.84512 C212.17448,210.56592 212.17208,210.27872 212.11368,210.00512 L140.72168,210.00512 Z" id="Fill-49" fill="#FFFFFF" mask="url(#mask-2)"></path>
                    <polygon id="Fill-50" fill="#FFFFFF" mask="url(#mask-2)" points="99.2624 161.1344 247.268 161.1344 247.268 69.2288 99.2624 69.2288"></polygon>
                    <polygon id="Fill-51" fill="#809FAA" mask="url(#mask-2)" points="174.708 75.736 190.324 75.736 190.324 74.1352 174.708 74.1352"></polygon>
                    <polygon id="Fill-52" fill="#FFDA8E" mask="url(#mask-2)" points="191.1688 75.736 206.7856 75.736 206.7856 74.1352 191.1688 74.1352"></polygon>
                    <polygon id="Fill-53" fill="#809FAA" mask="url(#mask-2)" points="207.6304 75.736 223.2464 75.736 223.2464 74.1352 207.6304 74.1352"></polygon>
                    <polygon id="Fill-54" fill="#809FAA" mask="url(#mask-2)" points="224.0912 75.736 239.7072 75.736 239.7072 74.1352 224.0912 74.1352"></polygon>
                    <polygon id="Fill-55" fill="#FDC16D" mask="url(#mask-2)" points="154.9816 149.4248 188.7064 149.4248 188.7064 119.4896 154.9816 119.4896"></polygon>
                    <polygon id="Fill-56" fill="#2290BF" mask="url(#mask-2)" points="105.1264 148.6728 138.8512 148.6728 138.8512 118.7368 105.1264 118.7368"></polygon>
                    <polygon id="Fill-57" fill="#ED7979" mask="url(#mask-2)" points="204.0104 149.4248 237.736 149.4248 237.736 119.4896 204.0104 119.4896"></polygon>
                    <polygon id="Fill-58" fill="#98DFE5" mask="url(#mask-2)" points="108.7016 156.7456 128.8696 156.7456 128.8696 155.2096 108.7016 155.2096"></polygon>
                    <polygon id="Fill-59" fill="#B6C8CE" mask="url(#mask-2)" points="129.3864 156.7456 237.6584 156.7456 237.6584 155.2096 129.3864 155.2096"></polygon>
                    <polygon id="Fill-60" fill="#FFFFFF" mask="url(#mask-2)" points="158.3496 124.6256 178.4552 124.6256 178.4552 123.3104 158.3496 123.3104"></polygon>
                    <polygon id="Fill-61" fill="#FF9A00" mask="url(#mask-2)" points="158.3496 130.0352 184.7888 130.0352 184.7888 129.3152 158.3496 129.3152"></polygon>
                    <polygon id="Fill-62" fill="#FF9A00" mask="url(#mask-2)" points="158.3496 133.2008 184.7888 133.2008 184.7888 132.4816 158.3496 132.4816"></polygon>
                    <polygon id="Fill-63" fill="#227792" mask="url(#mask-2)" points="108.0568 133.2008 134.4952 133.2008 134.4952 132.4816 108.0568 132.4816"></polygon>
                    <polygon id="Fill-64" fill="#FF9A00" mask="url(#mask-2)" points="158.3496 136.368 184.7888 136.368 184.7888 135.648 158.3496 135.648"></polygon>
                    <polygon id="Fill-65" fill="#FF9A00" mask="url(#mask-2)" points="158.3496 139.5344 176.6224 139.5344 176.6224 138.8144 158.3496 138.8144"></polygon>
                    <polygon id="Fill-66" fill="#FFFFFF" mask="url(#mask-2)" points="158.3496 145.3952 164.1232 145.3952 164.1232 144.08 158.3496 144.08"></polygon>
                    <polygon id="Fill-67" fill="#FFFFFF" mask="url(#mask-2)" points="108.0568 124.6256 128.1616 124.6256 128.1616 123.3104 108.0568 123.3104"></polygon>
                    <polygon id="Fill-68" fill="#227792" mask="url(#mask-2)" points="108.0568 130.0352 134.4952 130.0352 134.4952 129.3152 108.0568 129.3152"></polygon>
                    <polygon id="Fill-69" fill="#227792" mask="url(#mask-2)" points="108.0568 136.368 134.4952 136.368 134.4952 135.648 108.0568 135.648"></polygon>
                    <polygon id="Fill-70" fill="#227792" mask="url(#mask-2)" points="108.0568 139.5344 126.3304 139.5344 126.3304 138.8144 108.0568 138.8144"></polygon>
                    <polygon id="Fill-71" fill="#FFFFFF" mask="url(#mask-2)" points="108.0568 145.3952 113.8304 145.3952 113.8304 144.08 108.0568 144.08"></polygon>
                    <polygon id="Fill-72" fill="#FFFFFF" mask="url(#mask-2)" points="207.6576 124.6256 227.7632 124.6256 227.7632 123.3104 207.6576 123.3104"></polygon>
                    <polygon id="Fill-73" fill="#D63B13" mask="url(#mask-2)" points="207.6576 130.0352 234.096 130.0352 234.096 129.3152 207.6576 129.3152"></polygon>
                    <polygon id="Fill-74" fill="#D63B13" mask="url(#mask-2)" points="207.6576 133.2008 234.096 133.2008 234.096 132.4816 207.6576 132.4816"></polygon>
                    <polygon id="Fill-75" fill="#D63B13" mask="url(#mask-2)" points="207.6576 136.368 234.096 136.368 234.096 135.648 207.6576 135.648"></polygon>
                    <polygon id="Fill-76" fill="#D63B13" mask="url(#mask-2)" points="207.6576 139.5344 225.9304 139.5344 225.9304 138.8144 207.6576 138.8144"></polygon>
                    <polygon id="Fill-77" fill="#FFFFFF" mask="url(#mask-2)" points="207.6576 145.3952 213.4312 145.3952 213.4312 144.08 207.6576 144.08"></polygon>
                    <polygon id="Fill-78" fill="#2290BF" mask="url(#mask-2)" points="107.5392 82.8968 131.0704 82.8968 131.0704 76.404 107.5392 76.404"></polygon>
                    <path d="M234.2204,109.03304 C227.6588,95.00184 213.4156,85.93544 197.934,85.93544 C182.7228,85.93544 169.0148,94.37944 162.1612,107.97304 L161.09,107.43304 C168.1492,93.43304 182.2668,84.73544 197.934,84.73544 C213.8796,84.73544 228.5492,94.07384 235.3076,108.52504 L234.2204,109.03304 Z" id="Fill-79" fill="#002936" mask="url(#mask-2)"></path>
                    <polygon id="Fill-80" fill="#FFFFFF" mask="url(#mask-2)" points="159.3824 111.0336 164.1856 111.0336 164.1856 106.2304 159.3824 106.2304"></polygon>
                    <path d="M159.9824,110.4344 L163.5864,110.4344 L163.5864,106.8312 L159.9824,106.8312 L159.9824,110.4344 Z M158.7824,111.6336 L164.7856,111.6336 L164.7856,105.6312 L158.7824,105.6312 L158.7824,111.6336 Z" id="Fill-81" fill="#002936" mask="url(#mask-2)"></path>
                    <polygon id="Fill-82" fill="#FFFFFF" mask="url(#mask-2)" points="232.428 111.0336 237.232 111.0336 237.232 106.2304 232.428 106.2304"></polygon>
                    <path d="M233.028,110.4344 L236.632,110.4344 L236.632,106.8312 L233.028,106.8312 L233.028,110.4344 Z M231.8272,111.6336 L237.8312,111.6336 L237.8312,105.6312 L231.8272,105.6312 L231.8272,111.6336 Z" id="Fill-83" fill="#002936" mask="url(#mask-2)"></path>
                    <path d="M229.58576,171.4272 L230.18656,180.4216 L212.64016,180.4368 L212.03936,171.4416 L229.58576,171.4272 Z M235.56816,185.7864 L233.92896,161.2392 C233.87136,160.3696 233.02416,159.6648 232.03616,159.6664 L230.58896,159.6672 C229.60016,159.668 228.84736,160.3736 228.90656,161.2432 L229.28976,167.0016 L211.74416,167.0168 L211.35936,161.2584 C211.30096,160.388 210.45376,159.684 209.46656,159.6848 L208.01936,159.6856 C207.03216,159.6872 206.27856,160.3928 206.33696,161.2624 L207.98256,185.9152 L235.56816,185.7864 Z" id="Fill-84" fill="#003D54" mask="url(#mask-2)"></path>
                    <path d="M210.5776,206.7216 L228.2552,206.7216 L228.2552,197.7952 L210.5776,197.7952 L210.5776,206.7216 Z M210.5776,193.4024 L228.2552,193.4024 L228.2552,184.4736 L210.5776,184.4736 L210.5776,193.4024 Z M210.5776,180.0816 L228.2552,180.0816 L228.2552,171.1536 L210.5776,171.1536 L210.5776,180.0816 Z M231.5152,159.4824 L230.0568,159.4824 C229.0616,159.4824 228.2552,160.1824 228.2552,161.0456 L228.2552,166.7616 L210.5776,166.7616 L210.5776,161.0456 C210.5776,160.1824 209.772,159.4824 208.7752,159.4824 L207.3176,159.4824 C206.3232,159.4824 205.516,160.1824 205.516,161.0456 L205.516,218.4368 C205.516,219.3 206.3232,220 207.3176,220 L208.7752,220 C209.772,220 210.5776,219.3 210.5776,218.4368 L210.5776,211.1136 L228.2552,211.1136 L228.2552,218.4368 C228.2552,219.3 229.0616,220 230.0568,220 L231.5152,220 C232.5104,220 233.3168,219.3 233.3168,218.4368 L233.3168,161.0456 C233.3168,160.1824 232.5104,159.4824 231.5152,159.4824 L231.5152,159.4824 Z" id="Fill-85" fill="#F9BA00" mask="url(#mask-2)"></path>
                    <polygon id="Fill-86" fill="#F89E00" mask="url(#mask-2)" points="210.4248 184.3104 228.5104 184.3104 228.5104 182.7856 210.4248 182.7856"></polygon>
                    <polygon id="Fill-87" fill="#F89E00" mask="url(#mask-2)" points="210.4248 171.0856 228.5104 171.0856 228.5104 169.5608 210.4248 169.5608"></polygon>
                    <polygon id="Fill-88" fill="#F89E00" mask="url(#mask-2)" points="210.4248 197.708 228.5104 197.708 228.5104 196.184 210.4248 196.184"></polygon>
                    <polygon id="Fill-89" fill="#F89E00" mask="url(#mask-2)" points="210.4248 211.1112 228.5104 211.1112 228.5104 209.5864 210.4248 209.5864"></polygon>
                    <polygon id="Fill-90" fill="#003D54" mask="url(#mask-2)" points="152.8552 188.1808 200.0448 188.1808 200.0448 185.8608 152.8552 185.8608"></polygon>
                    <path d="M276.33432,83.97112 L248.42072,100.01832 C248.00392,100.25832 247.86072,100.78952 248.09992,101.20632 C248.26072,101.48632 248.55352,101.64312 248.85512,101.64312 C249.00232,101.64312 249.15112,101.60552 249.28792,101.52712 L276.33432,85.97832 L276.33432,83.97112 Z" id="Fill-91" fill="#003D54" mask="url(#mask-2)"></path>
                    <polygon id="Fill-92" fill="#174F78" mask="url(#mask-2)" points="337.63384 112.67744 239.82984 121.54864 237.95064 100.83104 335.75384 91.95984"></polygon>
                    <polygon id="Fill-93" fill="#88A0BB" mask="url(#mask-2)" points="269.23184 106.95664 238.06064 101.48784 238.15824 100.92784 269.33024 106.39664"></polygon>
                    <polygon id="Fill-94" fill="#88A0BB" mask="url(#mask-2)" points="307.65184 103.36416 307.44544 102.83376 335.48064 91.91776 335.68704 92.44736"></polygon>
                    <polygon id="Fill-95" fill="#88A0BB" mask="url(#mask-2)" points="338.31688 112.33112 308.32568 107.69832 308.41288 107.13592 338.40408 111.76952"></polygon>
                    <polygon id="Fill-96" fill="#88A0BB" mask="url(#mask-2)" points="239.83008 121.54832 239.78928 121.09792 269.81088 111.58512 269.98288 112.12672 240.41808 121.49472"></polygon>
                    <polygon id="Fill-97" fill="#DFF6F8" mask="url(#mask-2)" points="283.99096 112.52552 275.30296 109.82632 275.08456 107.82952 282.98616 103.33192 283.24296 105.68392 277.69976 108.52872 283.73576 110.19032"></polygon>
                    <polygon id="Fill-98" fill="#DFF6F8" mask="url(#mask-2)" points="284.93168 114.0264 286.55968 101.188 288.30128 100.9976 286.64048 113.8392"></polygon>
                    <polygon id="Fill-99" fill="#DFF6F8" mask="url(#mask-2)" points="290.264 111.84896 290.0088 109.51376 295.5528 106.60176 289.5136 104.98256 289.26 102.66336 297.9544 105.34656 298.1704 107.32656"></polygon>
                    <polygon id="Fill-100" fill="#003D54" mask="url(#mask-2)" points="239.83008 121.54832 262.96048 121.54832 262.96048 119.45072"></polygon>
                </g>
            </g>
        </g>
    </g>
</svg>