<?xml version="1.0" encoding="UTF-8" standalone="no"?>
<svg width="400px" height="232px" viewBox="0 0 400 232" version="1.1" xmlns="http://www.w3.org/2000/svg" xmlns:xlink="http://www.w3.org/1999/xlink">
    <!-- Generator: Sketch 3.8.3 (29802) - http://www.bohemiancoding.com/sketch -->
    <title>Integrate_IMG</title>
    <desc>Created with Sketch.</desc>
    <defs></defs>
    <g id="Page-1" stroke="none" stroke-width="1" fill="none" fill-rule="evenodd">
        <g id="dash-alt-2-copy-3" transform="translate(-429.000000, -701.000000)">
            <g id="Integrate_IMG" transform="translate(429.000000, 701.000000)">
                <polygon id="Fill-1" fill="#424344" points="0 232 400 232 400 0 0 0"></polygon>
                <g id="Group-32" transform="translate(111.200000, 17.600000)">
                    <path d="M7.57112,145.04368 L88.07352,191.52448 L168.57752,145.04368 L168.57752,52.08608 L88.07352,5.60528 L7.57112,52.08608 L7.57112,145.04368 Z M88.07352,193.49568 C87.91672,193.49568 87.75752,193.45488 87.61592,193.37328 L6.19912,146.36448 C5.91672,146.20048 5.74152,145.89888 5.74152,145.57168 L5.74152,51.55808 C5.74152,51.23088 5.91672,50.92928 6.19912,50.76528 L87.61592,3.75728 C87.89832,3.59408 88.24872,3.59408 88.53112,3.75728 L169.95032,50.76528 C170.23272,50.92928 170.40792,51.23088 170.40792,51.55808 L170.40792,145.57168 C170.40792,145.89888 170.23272,146.20048 169.95032,146.36448 L88.53112,193.37328 C88.38952,193.45488 88.23112,193.49568 88.07352,193.49568 L88.07352,193.49568 Z" id="Fill-2" fill="#D5D7D9"></path>
                    <path d="M7.57112,145.04368 L87.15832,190.99568 L87.15832,6.13488 L7.57112,52.08608 L7.57112,145.04368 Z M88.07352,193.49568 C87.91672,193.49568 87.75752,193.45488 87.61592,193.37328 L6.19912,146.36448 C5.91672,146.20048 5.74152,145.89888 5.74152,145.57168 L5.74152,51.55808 C5.74152,51.23088 5.91672,50.92928 6.19912,50.76528 L87.61592,3.75728 C87.89832,3.59408 88.24872,3.59408 88.53112,3.75728 C88.81352,3.92048 88.98872,4.22288 88.98872,4.54928 L88.98872,192.58128 C88.98872,192.90768 88.81352,193.21008 88.53112,193.37328 C88.38952,193.45488 88.23112,193.49568 88.07352,193.49568 L88.07352,193.49568 Z" id="Fill-4" fill="#D5D7D9"></path>
                    <path d="M8.2412,144.6568 L167.9076,144.6568 L88.0732,6.3792 L8.2412,144.6568 Z M169.5284,146.4864 C169.5212,146.4872 169.5068,146.4872 169.4924,146.4864 L6.6564,146.4864 C6.3292,146.4864 6.0276,146.312 5.8644,146.0288 C5.7004,145.7456 5.7004,145.3976 5.8644,145.1144 L87.282,4.092 C87.6068,3.5256 88.5396,3.5256 88.8652,4.092 L170.1756,144.9232 C170.3412,145.0888 170.4436,145.3176 170.4436,145.572 C170.4436,146.0776 170.034,146.4864 169.5284,146.4864 L169.5284,146.4864 Z" id="Fill-6" fill="#D5D7D9"></path>
                    <path d="M8.2412,52.47264 L88.0732,190.75104 L167.9076,52.47264 L8.2412,52.47264 Z M88.0732,193.49584 C87.7468,193.49584 87.4444,193.32144 87.282,193.03824 L5.8644,52.01504 C5.7004,51.73184 5.7004,51.38384 5.8644,51.10064 C6.0276,50.81744 6.3292,50.64304 6.6564,50.64304 L169.4924,50.64304 C169.8196,50.64304 170.122,50.81744 170.2844,51.10064 C170.4484,51.38384 170.4484,51.73184 170.2844,52.01504 L88.8652,193.03824 C88.7028,193.32144 88.4004,193.49584 88.0732,193.49584 L88.0732,193.49584 Z" id="Fill-8" fill="#D5D7D9"></path>
                    <path d="M7.57112,144.6568 L166.07832,144.6568 L7.57112,53.1424 L7.57112,144.6568 Z M169.52872,146.4864 C169.52152,146.4872 169.50712,146.4872 169.49272,146.4864 L6.65592,146.4864 C6.15032,146.4864 5.74152,146.0776 5.74152,145.572 L5.74152,51.5576 C5.74152,51.2304 5.91672,50.9288 6.19912,50.7656 C6.48152,50.6024 6.83112,50.6024 7.11352,50.7656 L169.81992,144.7032 C170.18232,144.8248 170.44312,145.168 170.44312,145.572 C170.44312,146.0776 170.03432,146.4864 169.52872,146.4864 L169.52872,146.4864 Z" id="Fill-10" fill="#D5D7D9"></path>
                    <path d="M10.07096,144.6568 L168.57816,144.6568 L168.57816,53.1424 L10.07096,144.6568 Z M169.49256,146.4864 L6.65656,146.4864 C6.24216,146.4864 5.87896,146.2088 5.77176,145.8088 C5.66456,145.408 5.83976,144.9864 6.19896,144.7792 L169.03496,50.7656 C169.31736,50.6024 169.66776,50.6024 169.95016,50.7656 C170.23256,50.9288 170.40776,51.2304 170.40776,51.5576 L170.40776,145.572 C170.40776,146.0776 169.99816,146.4864 169.49256,146.4864 L169.49256,146.4864 Z" id="Fill-12" fill="#D5D7D9"></path>
                    <path d="M88.0736,196.12608 C84.1904,196.12608 81.0456,192.97968 81.0456,189.09808 C81.0456,185.21568 84.1904,182.06288 88.0736,182.06288 C91.9616,182.06288 95.1072,185.21568 95.1072,189.09808 C95.1072,192.97968 91.9616,196.12608 88.0736,196.12608" id="Fill-14" fill="#99CCBB"></path>
                    <path d="M88.0736,14.19144 C84.1904,14.19144 81.0456,11.03784 81.0456,7.15624 C81.0456,3.27224 84.1904,0.12584 88.0736,0.12584 C91.9616,0.12584 95.1072,3.27224 95.1072,7.15624 C95.1072,11.03784 91.9616,14.19144 88.0736,14.19144" id="Fill-16" fill="#FDC16D"></path>
                    <path d="M169.81608,58.35608 C165.93368,58.35608 162.78328,55.20728 162.78328,51.32488 C162.78328,47.44088 165.93368,44.29608 169.81608,44.29608 C173.69928,44.29608 176.84968,47.44088 176.84968,51.32488 C176.84968,55.20728 173.69928,58.35608 169.81608,58.35608" id="Fill-18" fill="#F2F4F7"></path>
                    <path d="M169.81608,152.67904 C165.93368,152.67904 162.78328,149.53184 162.78328,145.65024 C162.78328,141.76704 165.93368,138.61824 169.81608,138.61824 C173.69928,138.61824 176.84968,141.76704 176.84968,145.65024 C176.84968,149.53184 173.69928,152.67904 169.81608,152.67904" id="Fill-20" fill="#6D7E99"></path>
                    <path d="M7.78208,58.35608 C3.89888,58.35608 0.75088,55.20728 0.75088,51.32488 C0.75088,47.44088 3.89888,44.29608 7.78208,44.29608 C11.66128,44.29608 14.81168,47.44088 14.81168,51.32488 C14.81168,55.20728 11.66128,58.35608 7.78208,58.35608" id="Fill-22" fill="#ABDCE5"></path>
                    <path d="M7.78208,152.67904 C3.89888,152.67904 0.75088,149.53184 0.75088,145.65024 C0.75088,141.76704 3.89888,138.61824 7.78208,138.61824 C11.66128,138.61824 14.81168,141.76704 14.81168,145.65024 C14.81168,149.53184 11.66128,152.67904 7.78208,152.67904" id="Fill-24" fill="#ED7979"></path>
                    <path d="M125.49264,98.852 C125.49264,118.8688 109.26064,135.1064 89.24064,135.1064 C69.21504,135.1064 52.98304,118.8688 52.98304,98.852 C52.98304,78.8216 69.21504,62.5944 89.24064,62.5944 C109.26064,62.5944 125.49264,78.8216 125.49264,98.852" id="Fill-26" fill="#FFE266"></path>
                    <path d="M105.52608,104.9828 C101.80768,103.2116 97.82848,102.0932 93.77568,101.6108 C93.91168,100.6524 94.04928,99.69 94.18128,98.726 C95.08368,98.1508 95.73568,97.302 95.78928,96.5932 C95.89808,95.702 96.00048,94.8116 96.10608,93.9172 C96.22688,94.0452 96.39488,94.142 96.58768,94.1612 C97.01488,94.2044 97.39968,93.89 97.44368,93.4644 L97.86768,89.3436 C97.91408,88.9172 97.60128,88.5364 97.17408,88.4916 C97.01168,88.4756 96.85808,88.506 96.72368,88.582 C96.81488,87.7964 96.91008,87.0172 96.99568,86.2332 C97.06848,85.1556 97.60128,82.2892 95.53248,80.4404 C92.53328,77.5004 85.94528,77.5004 82.95088,80.4404 C80.87808,82.2892 81.41568,85.1556 81.48688,86.2332 C81.57648,87.0172 81.66928,87.7964 81.75888,88.582 C81.63168,88.506 81.46768,88.4756 81.30528,88.4916 C80.87808,88.5364 80.56848,88.9172 80.61328,89.3436 L81.03888,93.4644 C81.08128,93.89 81.46368,94.2044 81.89088,94.1612 C82.08368,94.142 82.25168,94.0452 82.37728,93.9172 C82.48048,94.8116 82.58288,95.702 82.68608,96.5932 C82.75008,97.302 83.39728,98.1508 84.29968,98.726 C84.43408,99.69 84.56928,100.6492 84.70368,101.6108 C80.65248,102.0932 76.67328,103.2116 72.96048,104.9828 C71.75728,105.6164 70.91648,107.2412 71.04128,108.5044 C71.18368,109.954 71.32688,111.4012 71.47728,112.8484 C71.60768,114.11 72.69008,115.3588 73.88928,115.5916 C84.07488,117.234 94.41168,117.234 104.59168,115.5916 C105.78848,115.3588 106.87328,114.11 107.00368,112.8484 C107.15408,111.4012 107.29328,109.954 107.43648,108.5044 C107.55968,107.2412 106.72368,105.6116 105.52608,104.9828" id="Fill-28" fill="#60728C"></path>
                    <path d="M77.30048,116.07736 C78.27648,116.19736 79.25008,116.30456 80.22608,116.39656 C80.34208,116.40856 80.45968,116.41816 80.57968,116.42776 C82.68048,116.61896 84.79088,116.74136 86.90528,116.79256 C88.47568,116.83176 90.04768,116.83176 91.62368,116.79256 C91.58288,115.83416 91.51168,114.83576 91.39888,113.80056 C90.90928,109.22056 89.87328,105.36456 88.82448,103.81016 L88.82448,100.29656 C88.87568,100.31656 88.92928,100.33256 88.98848,100.33256 C90.32848,100.33256 91.41168,95.39176 91.41168,89.29416 C91.41168,83.19496 90.32848,78.25096 88.98848,78.25096 C88.92928,78.25096 88.87568,78.27416 88.82448,78.29256 L88.82448,78.25096 C88.53808,78.26216 88.25968,78.28136 87.98208,78.31016 L87.97568,78.31016 C87.70528,78.34056 87.43568,78.37976 87.16608,78.43016 C87.15168,78.43496 87.13568,78.43736 87.12128,78.44056 C86.86608,78.48856 86.61888,78.54616 86.37968,78.60616 C86.33648,78.62056 86.29728,78.63336 86.26368,78.64216 C86.04368,78.70456 85.82368,78.77256 85.60768,78.84776 C85.54528,78.86936 85.47728,78.89576 85.41648,78.92296 C85.23408,78.99096 85.04688,79.06376 84.87488,79.14456 C84.78208,79.18696 84.68928,79.23896 84.59968,79.28616 C84.45728,79.35496 84.31568,79.42696 84.18208,79.50696 C84.05488,79.58216 83.94048,79.66616 83.82288,79.74376 C83.72608,79.80936 83.62768,79.87336 83.53488,79.93976 C83.32928,80.10056 83.13488,80.26136 82.95088,80.43976 C80.87808,82.28936 81.41568,85.15576 81.48688,86.23336 C81.57648,87.01736 81.66928,87.79656 81.75888,88.58216 C81.63168,88.50616 81.46768,88.47576 81.30528,88.49176 C80.87808,88.53656 80.56848,88.91656 80.61328,89.34376 L81.03888,93.46456 C81.08128,93.89016 81.46368,94.20456 81.89088,94.16136 C82.08368,94.14216 82.25168,94.04536 82.37728,93.91736 C82.48048,94.81176 82.58208,95.70136 82.68608,96.59336 C82.75008,97.30216 83.39728,98.15096 84.29968,98.72616 C84.43408,99.69016 84.56928,100.64936 84.70368,101.61096 C80.65248,102.09336 76.67328,103.21176 72.96048,104.98296 C71.75728,105.61656 70.91568,107.24136 71.04128,108.50456 C71.18368,109.95416 71.32688,111.40136 71.47728,112.84856 C71.60768,114.11016 72.69008,115.35896 73.88928,115.59176 C74.87968,115.75256 75.86768,115.89336 76.85408,116.01576 C77.00608,116.03736 77.15008,116.06056 77.30048,116.07736" id="Fill-30" fill="#6D7E99"></path>
                </g>
            </g>
        </g>
    </g>
</svg>