<?xml version="1.0" encoding="UTF-8" standalone="no"?>
<svg
   xmlns:dc="http://purl.org/dc/elements/1.1/"
   xmlns:cc="http://creativecommons.org/ns#"
   xmlns:rdf="http://www.w3.org/1999/02/22-rdf-syntax-ns#"
   xmlns:svg="http://www.w3.org/2000/svg"
   xmlns="http://www.w3.org/2000/svg"
   viewBox="0 0 730.66669 520"
   height="520"
   width="730.66669"
   xml:space="preserve"
   id="svg2"
   version="1.1"><metadata
     id="metadata8"><rdf:RDF><cc:Work
         rdf:about=""><dc:format>image/svg+xml</dc:format><dc:type
           rdf:resource="http://purl.org/dc/dcmitype/StillImage" /></cc:Work></rdf:RDF></metadata><defs
     id="defs6"><clipPath
       id="clipPath22"
       clipPathUnits="userSpaceOnUse"><path
         id="path20"
         d="m 4365,1950 c 0,-897.46 -727.54,-1625 -1625,-1625 -897.47,0 -1625,727.54 -1625,1625 0,897.47 727.53,1625 1625,1625 897.46,0 1625,-727.53 1625,-1625" /></clipPath><clipPath
       id="clipPath120"
       clipPathUnits="userSpaceOnUse"><path
         id="path118"
         d="m 4365,1950 c 0,-897.46 -727.54,-1625 -1625,-1625 -897.47,0 -1625,727.54 -1625,1625 0,897.47 727.53,1625 1625,1625 897.46,0 1625,-727.53 1625,-1625" /></clipPath><clipPath
       id="clipPath126"
       clipPathUnits="userSpaceOnUse"><path
         id="path124"
         d="M 4166,1813.32 H 2393.91 c -20.79,0 -37.52,-16.81 -37.52,-37.57 0,-20.7 16.73,-37.51 37.52,-37.51 H 4166 c 20.73,0 37.61,16.81 37.61,37.51 0,20.76 -16.88,37.57 -37.61,37.57 z" /></clipPath><linearGradient
       id="linearGradient136"
       spreadMethod="pad"
       gradientTransform="matrix(-3.3e-6,75.0781,75.0781,3.3e-6,3280,1738.24)"
       gradientUnits="userSpaceOnUse"
       y2="0"
       x2="1"
       y1="0"
       x1="0"><stop
         id="stop128"
         offset="0"
         style="stop-opacity:1;stop-color:#211c1c" /><stop
         id="stop130"
         offset="0.509202"
         style="stop-opacity:1;stop-color:#3b3a3d" /><stop
         id="stop132"
         offset="0.509202"
         style="stop-opacity:1;stop-color:#3b3a3d" /><stop
         id="stop134"
         offset="1"
         style="stop-opacity:1;stop-color:#3b3a3d" /></linearGradient></defs><g
     transform="matrix(1.3333333,0,0,-1.3333333,0,520)"
     id="g10"><g
       transform="scale(0.1)"
       id="g12"><path
         id="path14"
         style="fill:#ffffff;fill-opacity:1;fill-rule:nonzero;stroke:none"
         d="M 0,0 H 5480 V 3900 H 0 Z" /><g
         id="g16"><g
           clip-path="url(#clipPath22)"
           id="g18"><path
             id="path24"
             style="fill:#43a2c8;fill-opacity:1;fill-rule:nonzero;stroke:none"
             d="m 4365,1950 c 0,-897.46 -727.54,-1625 -1625,-1625 -897.47,0 -1625,727.54 -1625,1625 0,897.47 727.53,1625 1625,1625 897.46,0 1625,-727.53 1625,-1625" /><path
             id="path26"
             style="fill:#f8d5b4;fill-opacity:1;fill-rule:nonzero;stroke:none"
             d="m 4054.24,1674.07 c -23.08,41.69 -66.39,65.19 -110.93,64.98 l -1.3,-0.04 c -19.98,-0.3 -40.16,-5.32 -58.86,-15.67 l -521.2,-288.4 c 4.06,-64.42 -27.88,-129.5 -88.09,-162.86 -40.96,-22.64 -87.21,-26.87 -128.97,-15.46 l -341.6,96.89 c -15.45,3.73 -22.84,13.31 -18.71,27.95 4.06,13.68 14.66,21.21 31.45,16.39 l 339.5,-96.65 c 66.94,-19.3 136.72,19.32 155.85,86.23 19.2,66.85 -19.36,136.52 -86.17,155.74 l -706.02,202.78 c -5.47,1.27 -11.04,2.05 -16.64,2.57 -3.09,0.23 -6.17,0.48 -9.27,0.53 -1.94,0.03 -3.87,0.07 -5.81,0.01 -0.95,-0.02 -1.91,-0.05 -2.86,-0.09 -18.49,-0.95 -37.07,-6.02 -54.43,-15.62 l -382.05,-211.39 201.87,-363.09 199.54,110.38 c 30.53,16.92 65.27,18.51 97.06,10.07 l 626.91,-194.36 c 37.28,-9.49 65.37,-6.02 95.73,10.76 l 735.88,407.22 c 60.78,33.61 82.76,110.31 49.12,171.13" /><path
             id="path28"
             style="fill:#f4c293;fill-opacity:1;fill-rule:nonzero;stroke:none"
             d="m 3342.02,1428.2 c -12.65,52.9 -52.64,97.73 -108.52,113.81 l -8.29,1.16 c 66.81,-19.21 105.37,-88.89 86.17,-155.74 -19.13,-66.91 -88.91,-105.53 -155.85,-86.23 l -339.5,96.65 c -16.79,4.82 -27.39,-2.71 -31.45,-16.39 -4.13,-14.64 3.26,-24.22 18.71,-27.95 l 341.6,-96.89 c 41.76,-11.41 88.01,-7.18 128.97,15.46 60.21,33.36 92.15,98.44 88.09,162.86 l -19.93,-6.74" /><path
             id="path30"
             style="fill:#fabca4;fill-opacity:1;fill-rule:nonzero;stroke:none"
             d="m 2487.47,1749.06 c 1.94,0.06 3.87,0.02 5.81,-0.01 l -2.26,0.13 c -1.19,0 -2.36,-0.09 -3.55,-0.12" /><path
             id="path32"
             style="fill:#ffffff;fill-opacity:1;fill-rule:nonzero;stroke:none"
             d="m 2158.08,1072.09 v 666.8 h 127.52 l 127.45,-0.04 v -333.36 -333.4 l -127.49,-0.04 -127.48,0.04" /><path
             id="path34"
             style="fill:#333232;fill-opacity:1;fill-rule:nonzero;stroke:none"
             d="M 2200.51,1072.01 1070,1072.05 v 666.97 l 1130.51,-0.05 v -666.96" /><path
             id="path36"
             style="fill:#3b90b5;fill-opacity:1;fill-rule:nonzero;stroke:none"
             d="m 2413.05,1072.09 v 0 176.97 l 0.01,0.01 0.01,-176.98" /><path
             id="path38"
             style="fill:#e0bf9f;fill-opacity:1;fill-rule:nonzero;stroke:none"
             d="m 2413.05,1249.06 v 156.54 l 0.01,-156.53 -0.01,-0.01" /><path
             id="path40"
             style="fill:#e9e8e7;fill-opacity:1;fill-rule:nonzero;stroke:none"
             d="m 2200.51,1072.09 v 333.5 l 212.54,0.01 v -333.51 h -212.54" /><path
             id="path42"
             style="fill:#2e2d2d;fill-opacity:1;fill-rule:nonzero;stroke:none"
             d="m 1372.33,1072.08 c -66.7,103.69 -121.91,215.4 -163.87,333.45 l 992.05,0.06 v -333.5 l -828.18,-0.01" /><path
             id="path44"
             style="fill:#f9a727;fill-opacity:1;fill-rule:nonzero;stroke:none"
             d="m 2310.1,1231.1 c 23.02,0 41.7,-18.16 41.66,-40.51 0,-22.43 -18.64,-40.5 -41.66,-40.56 -23.05,0 -41.67,18.13 -41.63,40.56 -0.04,22.35 18.58,40.52 41.63,40.51" /><path
             id="path46"
             style="fill:#d23833;fill-opacity:1;fill-rule:nonzero;stroke:none"
             d="m 3967.58,2542.88 c -43.4,0 -77.37,-17.54 -77.37,-40.02 0,-22.43 33.97,-39.96 77.37,-39.96 43.36,0 77.33,17.53 77.33,39.96 0,22.48 -33.97,40.02 -77.33,40.02" /><path
             id="path48"
             style="fill:#46464a;fill-opacity:1;fill-rule:nonzero;stroke:none"
             d="m 3908.42,2527.53 -2.33,0.29 -1.85,-1.29 c -10.15,-6.94 -15.5,-15.36 -15.5,-24.38 0,-10.74 7.82,-20.72 22,-28.15 l 1.8,-0.96 1.99,0.31 c 28.37,4.63 44.67,14.35 44.67,26.65 0,13.21 -18.99,23.46 -50.78,27.53" /><path
             id="path50"
             style="fill:#46464a;fill-opacity:1;fill-rule:nonzero;stroke:none"
             d="m 3942.15,2494.28 h 0.04 c -0.55,0 -55.06,-0.6 -70.23,-28.38 -8.07,-14.74 -3.67,-35.74 13.07,-62.33 l -14.59,-9.19 c -20.41,32.27 -24.97,59.23 -13.64,79.89 20.11,36.62 82.63,37.3 85.31,37.3 l 0.04,-17.29" /><path
             id="path52"
             style="fill:#d23833;fill-opacity:1;fill-rule:nonzero;stroke:none"
             d="m 2579.52,2542.88 c 43.39,0 77.37,-17.54 77.37,-40.02 0,-22.43 -33.98,-39.96 -77.37,-39.96 -43.35,0 -77.32,17.53 -77.32,39.96 0,22.48 33.97,40.02 77.32,40.02" /><path
             id="path54"
             style="fill:#46464a;fill-opacity:1;fill-rule:nonzero;stroke:none"
             d="m 2638.7,2527.53 2.29,0.29 1.88,-1.29 c 10.12,-6.94 15.47,-15.36 15.47,-24.38 0,-10.74 -7.82,-20.72 -21.98,-28.15 l -1.82,-0.96 -1.97,0.31 c -28.39,4.63 -44.65,14.35 -44.65,26.65 0,13.21 18.98,23.46 50.78,27.53" /><path
             id="path56"
             style="fill:#46464a;fill-opacity:1;fill-rule:nonzero;stroke:none"
             d="m 2604.95,2494.28 h -0.03 c 0.54,0 55.03,-0.6 70.25,-28.38 8.07,-14.74 3.65,-35.74 -13.12,-62.33 l 14.61,-9.19 c 20.4,32.27 24.99,59.23 13.64,79.89 -20.11,36.62 -82.64,37.3 -85.3,37.3 l -0.05,-17.29" /><path
             id="path58"
             style="fill:#d23833;fill-opacity:1;fill-rule:nonzero;stroke:none"
             d="m 3602.14,2465.49 h -662.12 c -99.35,0 -180.59,38.17 -180.59,84.84 l 68.45,187.53 c 14.27,50.55 81.26,125.18 180.59,125.18 h 525.19 c 99.36,0 165.18,-72.95 180.59,-125.18 l 68.46,-187.53 c 0,-46.67 -81.25,-84.84 -180.57,-84.84 z m 148.72,289.5 c -16.69,61.29 -88,146.97 -195.49,146.97 h -568.62 c -107.51,0 -180.02,-87.68 -195.46,-146.97 l -74.09,-220.22 c 0,-54.7 87.95,-99.5 195.47,-99.5 h 716.79 c 107.51,0 195.48,44.8 195.48,99.5 l -74.08,220.22" /><path
             id="path60"
             style="fill:#e7463e;fill-opacity:1;fill-rule:nonzero;stroke:none"
             d="m 3818.94,2534.77 c 0,-50.62 -86.78,-93.48 -189.48,-93.48 h -716.79 c -102.69,0 -189.45,42.86 -189.45,93.48 l -0.3,-1.92 74.14,220.22 c 15.02,57.81 85.63,142.82 189.69,142.82 h 568.62 c 104.06,0 173.54,-83.32 189.66,-142.49 l 74.19,-220.55 z m -62.26,221.83 c -17.14,62.84 -90.9,151.39 -201.31,151.39 h -568.62 c -110.46,0 -185.41,-90.4 -201.35,-151.53 l -73.94,-219.79 -0.36,-0.9 v -1 c 0,-58.21 90.42,-105.53 201.57,-105.53 h 716.79 c 111.15,0 201.55,47.32 201.55,105.53 v 1 l -0.35,0.9 -73.98,219.93" /><path
             id="path62"
             style="fill:#9f3226;fill-opacity:1;fill-rule:nonzero;stroke:none"
             d="m 3788.39,2552.37 -68.47,187.56 c -15.74,53.43 -84.08,129.16 -186.26,129.16 h -525.19 c -102.23,0 -171.68,-77.32 -186.44,-129.58 l -68.28,-187.14 -0.39,-1.04 v -1 c 0,-50.1 83.75,-90.83 186.66,-90.83 h 662.12 c 102.91,0 186.63,40.73 186.63,90.83 v 1 z m -186.25,-80.76 h -662.12 c -94.63,0 -174.56,36 -174.56,78.72 l -0.35,-2.11 68.45,187.57 c 13.88,49.15 78.93,121.22 174.91,121.22 h 525.19 c 95.96,0 159.95,-70.64 174.77,-120.87 l 68.58,-187.92 -0.35,2.11 c 0,-42.72 -79.94,-78.72 -174.52,-78.72" /><path
             id="path64"
             style="fill:#333232;fill-opacity:1;fill-rule:nonzero;stroke:none"
             d="m 2581.54,2160.09 h -80.37 c -20.89,0 -37.91,-13.11 -37.91,-29.25 v -292.25 c 0,-16.14 17.02,-29.27 37.91,-29.27 h 80.37 c 20.94,0 37.94,13.13 37.94,29.27 v 292.25 c 0,16.14 -17,29.25 -37.94,29.25" /><path
             id="path66"
             style="fill:#333232;fill-opacity:1;fill-rule:nonzero;stroke:none"
             d="m 4042.04,2160.09 h -80.33 c -20.95,0 -37.93,-13.11 -37.93,-29.25 v -292.25 c 0,-16.14 16.98,-29.27 37.93,-29.27 h 80.33 c 20.92,0 37.9,13.13 37.9,29.27 v 292.25 c 0,16.14 -16.98,29.25 -37.9,29.25" /><path
             id="path68"
             style="fill:#d23833;fill-opacity:1;fill-rule:nonzero;stroke:none"
             d="m 3271.08,2413.67 h 550.19 c 0,0 7.26,-0.77 19.12,-2.36 l -55.44,139.87 c -17.67,58.41 -94.33,136.33 -209.68,136.33 h -608.42 c -115.33,0 -189.07,-73.61 -209.67,-136.33 l -55.51,-140.06 c 12.81,1.71 20.65,2.55 20.65,2.55 z m 625.38,-37.17 v -1.01 c 0,-63.26 -100.77,-114.78 -224.63,-114.78 h -801.52 c -123.87,0 -224.62,51.52 -224.62,114.78 v 1.01 l 0.32,0.96 82.75,240.16 c 17.74,66.58 101.3,165.09 224.43,165.09 h 635.77 c 123.1,0 205.32,-96.51 224.4,-165.01 l 82.76,-240.24 0.34,-0.96" /><path
             id="path70"
             style="fill:#214b60;fill-opacity:1;fill-rule:nonzero;stroke:none"
             d="m 3271.08,2413.67 h 550.19 c 0,0 7.26,-0.77 19.12,-2.36 l -55.44,139.87 c -17.67,58.41 -94.33,136.33 -209.68,136.33 h -608.42 c -115.33,0 -189.07,-73.61 -209.67,-136.33 l -55.51,-140.06 c 12.81,1.71 20.65,2.55 20.65,2.55 h 548.76" /><path
             id="path72"
             style="fill:#9f3226;fill-opacity:1;fill-rule:nonzero;stroke:none"
             d="M 3799.75,2395.03 H 2743.87 c 0,0 -249.14,-27.35 -249.14,-99.33 v -206.04 c 0,0 5.54,-261.39 99.67,-289.45 0,0 380.08,-37.56 676.71,-37.77 l 678.11,37.77 c 94.1,28.06 99.65,289.45 99.65,289.45 v 206.04 c 0,71.98 -249.12,99.33 -249.12,99.33" /><path
             id="path74"
             style="fill:#d23833;fill-opacity:1;fill-rule:nonzero;stroke:none"
             d="m 3840.39,2411.31 c -11.86,1.59 -19.12,2.36 -19.12,2.36 h -2.63 l 1.2,-0.71 c 0,0 -103.72,-142.58 -138.29,-270.06 h -404.7 -10.1 -404.7 c -34.59,127.48 -138.29,270.06 -138.29,270.06 l 1.21,0.71 h -2.65 c 0,0 -7.84,-0.84 -20.65,-2.55 -61.31,-8.27 -238.62,-37.26 -238.62,-96.83 v -205.93 c 0,0 5.79,-233.33 103.7,-261.43 0,0 395.58,-66.75 704.33,-66.99 h 0.75 0.71 c 308.74,0.24 704.32,66.99 704.32,66.99 97.92,28.1 103.69,261.43 103.69,261.43 v 205.93 c 0,60.1 -180.34,89.08 -240.16,97.02" /><path
             id="path76"
             style="fill:#e7463e;fill-opacity:1;fill-rule:nonzero;stroke:none"
             d="m 3818.64,2413.67 c -118.71,72.22 -498.81,88.33 -546.81,83.56 -48.07,4.77 -428.16,-11.34 -546.86,-83.56 l -1.21,-0.71 c 0,0 103.7,-142.58 138.29,-270.06 h 404.7 10.1 404.7 c 34.57,127.48 138.29,270.06 138.29,270.06 l -1.2,0.71" /><path
             id="path78"
             style="fill:#d23833;fill-opacity:1;fill-rule:nonzero;stroke:none"
             d="m 3687.39,2141.34 c 33.89,124.88 136.31,266.66 137.35,268.06 l 3.83,5.27 -5.52,3.44 c -120.72,74.93 -503.86,89.91 -551.86,85.15 h 1.21 c -47.98,4.76 -431.16,-10.22 -551.85,-85.15 l -5.51,-3.44 3.86,-5.27 c 1.01,-1.4 103.43,-143.18 137.3,-268.06 l 11.64,3.17 c -34.43,127.02 -138.16,270.61 -139.17,272 l -1.71,-8.71 c 116.02,72.07 498.55,87.91 544.23,83.45 l 0.64,-0.07 0.57,0.07 c 45.67,4.46 428.23,-11.38 544.26,-83.45 l -1.74,8.71 c -1.02,-1.39 -104.74,-144.98 -139.19,-272 l 11.66,-3.17" /><path
             id="path80"
             style="fill:#353435;fill-opacity:1;fill-rule:nonzero;stroke:none"
             d="m 3966.74,2246.08 c -6.99,1.42 -14.53,2.34 -23.31,2.18 0,0 -66.55,3.61 -215.8,-80.93 0,0 -26.98,-9.87 -21.58,-45.83 0,0 -3.6,-26.12 38.69,-23.43 0,0 234.12,24.98 222,22.88 v 125.13" /><path
             id="path82"
             style="fill:#46464a;fill-opacity:1;fill-rule:nonzero;stroke:none"
             d="m 3966.97,2246.02 -0.23,0.08 v -125.15 c 12.12,2.1 22.88,4.34 31.64,6.66 l 0.82,0.23 c 2.42,0.69 4.67,1.32 6.75,2 l 1.7,0.56 c 1.67,0.6 3.21,1.15 4.62,1.76 l 1.76,0.76 c 1.2,0.51 2.24,1.08 3.2,1.64 l 1.4,0.78 2.05,1.77 0.8,0.76 1.07,2.51 c 0,0 17.59,90.9 -55.58,105.64" /><path
             id="path84"
             style="fill:#f68815;fill-opacity:1;fill-rule:nonzero;stroke:none"
             d="m 3831.77,2172.36 c 0,-23.8 19.33,-43.15 43.18,-43.15 23.84,0 43.17,19.35 43.17,43.15 0,23.83 -19.33,43.15 -43.17,43.15 -23.85,0 -43.18,-19.32 -43.18,-43.15" /><path
             id="path86"
             style="fill:#f68815;fill-opacity:1;fill-rule:nonzero;stroke:none"
             d="m 3804.28,2141.04 c 0,-19.06 -15.48,-34.55 -34.53,-34.55 -19.05,0 -34.52,15.49 -34.52,34.55 0,19.03 15.47,34.48 34.52,34.48 19.05,0 34.53,-15.45 34.53,-34.48" /><path
             id="path88"
             style="fill:#353435;fill-opacity:1;fill-rule:nonzero;stroke:none"
             d="m 2585.83,2246.08 c 6.99,1.42 14.54,2.34 23.28,2.18 0,0 66.56,3.61 215.82,-80.93 0,0 26.96,-9.87 21.56,-45.83 0,0 3.64,-26.12 -38.65,-23.43 0,0 -234.14,24.98 -222.01,22.88 v 125.13" /><path
             id="path90"
             style="fill:#46464a;fill-opacity:1;fill-rule:nonzero;stroke:none"
             d="m 2585.58,2246.02 0.25,0.08 v -125.15 c -12.13,2.1 -22.89,4.34 -31.65,6.66 l -0.83,0.23 c -2.4,0.69 -4.66,1.32 -6.74,2 l -1.71,0.56 c -1.69,0.6 -3.2,1.15 -4.59,1.76 l -1.78,0.76 c -1.2,0.51 -2.21,1.08 -3.19,1.64 l -1.39,0.78 -2.07,1.77 -0.8,0.76 -1.08,2.51 c 0,0 -17.6,90.9 55.58,105.64" /><path
             id="path92"
             style="fill:#f68815;fill-opacity:1;fill-rule:nonzero;stroke:none"
             d="m 2720.74,2172.36 c 0,-23.8 -19.31,-43.15 -43.15,-43.15 -23.83,0 -43.16,19.35 -43.16,43.15 0,23.83 19.33,43.15 43.16,43.15 23.84,0 43.15,-19.32 43.15,-43.15" /><path
             id="path94"
             style="fill:#f68815;fill-opacity:1;fill-rule:nonzero;stroke:none"
             d="m 2817.29,2141.04 c 0,-19.06 -15.44,-34.55 -34.51,-34.55 -19.03,0 -34.51,15.49 -34.51,34.55 0,19.03 15.48,34.48 34.51,34.48 19.07,0 34.51,-15.45 34.51,-34.48" /><path
             id="path96"
             style="fill:#353435;fill-opacity:1;fill-rule:nonzero;stroke:none"
             d="m 3860.54,2004.95 c 0,-35.73 28.94,-64.76 64.72,-64.76 35.78,0 64.78,29.03 64.78,64.76 0,35.78 -29,64.82 -64.78,64.82 -35.78,0 -64.72,-29.04 -64.72,-64.82" /><path
             id="path98"
             style="fill:#e7463e;fill-opacity:1;fill-rule:nonzero;stroke:none"
             d="m 3925.26,2061.08 c 30.96,0 56.16,-25.2 56.16,-56.13 0,-30.94 -25.2,-56.1 -56.16,-56.1 -30.95,0 -56.11,25.16 -56.11,56.1 0,30.93 25.16,56.13 56.11,56.13 z m -73.39,-56.13 c 0,-40.49 32.93,-73.37 73.39,-73.37 40.47,0 73.42,32.88 73.42,73.37 0,40.52 -32.95,73.42 -73.42,73.42 -40.46,0 -73.39,-32.9 -73.39,-73.42" /><path
             id="path100"
             style="fill:#353435;fill-opacity:1;fill-rule:nonzero;stroke:none"
             d="m 2683.09,2004.95 c 0,-35.73 -28.96,-64.76 -64.76,-64.76 -35.76,0 -64.75,29.03 -64.75,64.76 0,35.78 28.99,64.82 64.75,64.82 35.8,0 64.76,-29.04 64.76,-64.82" /><path
             id="path102"
             style="fill:#e7463e;fill-opacity:1;fill-rule:nonzero;stroke:none"
             d="m 2618.33,2078.37 c -40.47,0 -73.4,-32.9 -73.4,-73.42 0,-40.49 32.93,-73.37 73.4,-73.37 40.48,0 73.42,32.88 73.42,73.37 0,40.52 -32.94,73.42 -73.42,73.42 z m 56.15,-73.42 c 0,-30.94 -25.19,-56.1 -56.15,-56.1 -30.95,0 -56.11,25.16 -56.11,56.1 0,30.93 25.16,56.13 56.11,56.13 30.96,0 56.15,-25.2 56.15,-56.13" /><path
             id="path104"
             style="fill:#ae342b;fill-opacity:1;fill-rule:nonzero;stroke:none"
             d="m 2853.39,2034.85 c -42.07,0 -77.35,-35.53 -84.87,-82.08 h 430.32 l -9.68,82.08 h -335.77" /><path
             id="path106"
             style="fill:#ae342b;fill-opacity:1;fill-rule:nonzero;stroke:none"
             d="m 3775.1,1952.77 c -7.55,46.55 -42.81,82.08 -84.89,82.08 h -334.28 l -9.71,-82.08 h 428.88" /><path
             id="path108"
             style="fill:#ae342b;fill-opacity:1;fill-rule:nonzero;stroke:none"
             d="m 2766.96,1906.7 34.56,-88.66 c 127.14,-16.22 268.47,-33.84 417.65,-37.39 l -14.88,126.05 h -437.33" /><path
             id="path110"
             style="fill:#ae342b;fill-opacity:1;fill-rule:nonzero;stroke:none"
             d="m 3776.66,1906.7 h -435.89 l -14.87,-126 c 148.63,3.64 289.47,21.15 416.18,37.34 l 34.58,88.66" /><path
             id="path112"
             style="fill:#d23833;fill-opacity:1;fill-rule:nonzero;stroke:none"
             d="m 3346.22,1952.77 9.71,82.08 0.16,1.48 h -167.1 l 0.17,-1.48 9.68,-82.08 5.45,-46.07 14.88,-126.05 0.87,-7.26 c 17.22,-0.4 34.28,-0.62 51.07,-0.62 h 0.72 0.66 c 17.25,0 34.8,0.22 52.56,0.62 l 0.85,7.31 14.87,126 5.45,46.07" /></g></g><g
         id="g114"><g
           clip-path="url(#clipPath120)"
           id="g116"><g
             clip-path="url(#clipPath126)"
             id="g122"><path
               id="path138"
               style="fill:url(#linearGradient136);fill-opacity:1;fill-rule:nonzero;stroke:none"
               d="m 2386,1738 v 1 h -3 v 1 h -4 v 1 h -2 v 1 h -2 v 1 h -1 v 1 h -2 v 1 h -1 v 1 h -1 v 1 h -2 v 1 h -1 v 1 h -1 v 1 h -1 v 2 h -1 v 1 h -1 v 1 h -1 v 2 h -1 v 2 h -1 v 1 h -1 v 3 h -1 v 3 h -1 v 4 h -1 v 14 h 1 v 4 h 1 v 3 h 1 v 2 h 1 v 2 h 1 v 2 h 1 v 2 h 1 v 1 h 1 v 1 h 1 v 1 h 1 v 1 h 1 v 1 h 1 v 1 h 1 v 1 h 1 v 1 h 1 v 1 h 2 v 1 h 1 v 1 h 2 v 1 h 2 v 1 h 3 v 1 h 3 v 1 h 5 v 1 h 1782 v -1 h 5 v -1 h 3 v -1 h 3 v -1 h 2 v -1 h 1 v -1 h 2 v -1 h 2 v -1 h 1 v -1 h 1 v -1 h 1 v -1 h 1 v -1 h 1 v -1 h 1 v -1 h 1 v -1 h 1 v -2 h 1 v -1 h 1 v -2 h 1 v -2 h 1 v -2 h 1 v -3 h 1 v -4 h 1 v -14 h -1 v -4 h -1 v -3 h -1 v -3 h -1 v -1 h -1 v -2 h -1 v -2 h -1 v -1 h -1 v -1 h -1 v -2 h -1 v -1 h -1 v -1 h -1 v -1 h -2 v -1 h -1 v -1 h -1 v -1 h -2 v -1 h -2 v -1 h -1 v -1 h -2 v -1 h -4 v -1 h -3 v -1" /></g></g></g></g></g></svg>