<?xml version="1.0" encoding="iso-8859-1"?>
<!-- Generator: Adobe Illustrator 19.0.0, SVG Export Plug-In . SVG Version: 6.00 Build 0)  -->
<svg xmlns="http://www.w3.org/2000/svg" xmlns:xlink="http://www.w3.org/1999/xlink" version="1.1" id="Capa_1" x="0px" y="0px" viewBox="0 0 512.001 512.001" style="enable-background:new 0 0 512.001 512.001;" xml:space="preserve" width="512px" height="512px">
<g>
	<g>
		<path d="M501.501,413.673h-3.472V81.467h1.471c6.893,0,12.5-5.607,12.5-12.5V57.297c0-6.893-5.607-12.5-12.5-12.5H448    c-4.142,0-7.5,3.358-7.5,7.5c0,4.142,3.358,7.5,7.5,7.5h49v6.671H335.851c1.193-1.328,1.925-3.079,1.925-5.004    c0-0.568,0.057-1.122,0.14-1.667H406c4.142,0,7.5-3.358,7.5-7.5c0-4.142-3.358-7.5-7.5-7.5h-37.211    c-4.901-5.864-12.206-9.374-19.973-9.374c-8.024,0-15.21,3.65-19.99,9.374h-21.915c-4.901-5.864-12.206-9.374-19.973-9.374    c-8.024,0-15.209,3.65-19.99,9.374h-21.914c-4.901-5.864-12.206-9.374-19.973-9.374c-8.024,0-15.209,3.65-19.99,9.374h-21.915    c-4.901-5.864-12.206-9.374-19.973-9.374c-8.024,0-15.21,3.65-19.99,9.374H12.5c-6.893,0-12.5,5.607-12.5,12.5v11.671    c0,6.893,5.607,12.5,12.5,12.5h1.472v332.206H10.5c-5.79,0-10.5,4.71-10.5,10.5v12.962c0,4.409,2.735,8.185,6.595,9.739    c-0.178,1.223-0.28,2.469-0.28,3.74c0,14.316,11.647,25.964,25.964,25.964s25.963-11.647,25.963-25.964    c0-1.271-0.102-2.518-0.28-3.74c3.86-1.554,6.595-5.33,6.595-9.739v-12.962c0-5.79-4.71-10.5-10.5-10.5h-3.472v-14.941h229.343    H321.2h40.614h73.502h26.098v14.941h-3.472c-5.79,0-10.5,4.71-10.5,10.5v12.962c0,4.409,2.735,8.185,6.595,9.739    c-0.178,1.223-0.279,2.469-0.279,3.74c0,14.316,11.647,25.964,25.963,25.964c14.316,0,25.964-11.647,25.964-25.964    c0-1.271-0.102-2.518-0.279-3.74c3.859-1.554,6.595-5.33,6.595-9.739v-12.962C512.001,418.384,507.291,413.673,501.501,413.673z     M476.414,81.467h6.614v332.206h-6.614V81.467z M341.316,81.467v9.979l-10.656,8.071h-25.566l-10.656-8.071v-5.053    c3.338-1.008,6.459-2.681,9.159-4.926H341.316z M348.729,189.501c4.142,0,7.5-3.358,7.5-7.5v-22.464h22.522    c5.789,0,10.5-4.71,10.5-10.5v-34.519h46.877v30.019h-22.522c-5.789,0-10.5,4.71-10.5,10.5V256.64h-46.877v-37.64    c0-4.142-3.358-7.5-7.5-7.5c-4.142,0-7.5,3.358-7.5,7.5v37.641h-46.877v-97.104h22.521c5.79,0,10.5-4.71,10.5-10.5v-34.519h46.878    v30.019h-22.522c-5.79,0-10.5,4.71-10.5,10.5v26.963C341.229,186.142,344.587,189.501,348.729,189.501z M108.844,154.077    l22.101-39.559h7.051l18.14,28.122c1.807,2.803,4.771,4.476,7.93,4.476s6.123-1.673,7.928-4.475l18.142-28.123h5.286    l22.052,39.559c-0.029,0.317,0,150.813,0,150.813H108.893C108.893,304.889,108.873,154.394,108.844,154.077z M96.992,144.537    h-21.12v-30.019h37.892L96.992,144.537z M154.57,112.538l8.614-7.955l9.632,9.114l-8.749,13.563L154.57,112.538z M212.604,114.517    h37.892v30.019h-21.121L212.604,114.517z M232.475,267.991L232.475,267.991h46.877v6.956h-46.877V267.991z M232.475,252.991    v-6.957h46.877v6.957H232.475z M232.475,231.035v-6.956h46.877v6.956H232.475z M232.475,209.079v-6.956h46.877v6.956H232.475z     M232.475,187.123v-6.957h46.877v6.957H232.475z M232.475,165.165v-5.629h22.521c2.488,0,4.773-0.874,6.575-2.326h17.781v7.955    H232.475z M265.496,142.211v-5.958h46.877v5.958H265.496z M265.496,121.253v-6.735h46.877v6.735H265.496z M275.898,61.464    c0-0.568,0.057-1.122,0.14-1.667h46.797c-0.035,0.552-0.059,1.106-0.059,1.667c0,1.926,0.732,3.676,1.925,5.004h-50.728    C275.166,65.139,275.898,63.389,275.898,61.464z M279.438,81.467v9.979l-10.655,8.071h-25.566l-10.656-8.071v-5.053    c3.337-1.008,6.459-2.681,9.158-4.926H279.438z M214.02,61.464c0-0.568,0.057-1.122,0.14-1.667h46.797    c-0.035,0.552-0.059,1.106-0.059,1.667c0,1.926,0.732,3.676,1.925,5.004h-50.727C213.289,65.139,214.02,63.389,214.02,61.464z     M217.561,81.467v9.979l-10.656,8.071h-17.857c-1.945,0-3.956,0.537-5.782,1.46l-12.583-9.531v-5.053    c3.338-1.008,6.46-2.681,9.159-4.926H217.561z M152.143,61.464c0-0.568,0.057-1.122,0.14-1.667h46.797    c-0.035,0.552-0.059,1.106-0.059,1.667c0,1.926,0.732,3.676,1.925,5.004h-50.728C151.411,65.139,152.143,63.389,152.143,61.464z     M32.279,461.579c-6.045,0-10.964-4.918-10.964-10.964c0-1.033,0.151-2.03,0.42-2.979h21.087c0.268,0.949,0.42,1.946,0.42,2.979    C43.243,456.66,38.325,461.579,32.279,461.579z M49.558,432.636H15v-3.962h34.558V432.636z M28.972,413.673V81.467h6.614v332.206    H28.972z M15,66.467v-6.671h122.202c-0.035,0.552-0.059,1.106-0.059,1.667c0,1.926,0.732,3.676,1.925,5.004H15z M272.43,359.78    H219c-4.142,0-7.5,3.358-7.5,7.5c0,4.142,3.358,7.5,7.5,7.5h53.429v8.953H50.586v-8.953H181c4.142,0,7.5-3.358,7.5-7.5    c0-4.142-3.358-7.5-7.5-7.5H50.586v-8.952h219.913c0.595,0.467,1.243,0.868,1.931,1.2V359.78z M354.314,383.733h-66.885v-30.661    h66.885V383.733z M360.278,338.072h-78.814v-4.96h78.814V338.072z M427.816,383.733h-58.502v-31.706    c3.522-1.696,5.964-5.292,5.964-9.455v-13.96c0-5.789-4.71-10.5-10.5-10.5H328.7V313.9h99.116V383.733z M436.128,298.9H320.387    v-4.96h115.741V298.9z M461.414,383.733h-18.598v-8.953h18.598V383.733z M461.414,359.78h-18.598v-8.952h18.598V359.78z     M461.415,335.827h-18.598v-22.16c4.743-1.01,8.313-5.228,8.313-10.267v-13.96c0-5.79-4.71-10.5-10.5-10.5H315.887    c-5.789,0-10.5,4.71-10.5,10.5v13.96c0,5.04,3.57,9.258,8.313,10.267v4.444h-36.736c-5.79,0-10.5,4.711-10.5,10.5v7.216H50.586    V81.467h105.098v9.979l-11.917,9.026c-1.517-0.612-3.123-0.956-4.683-0.956H71.372c-5.79,0-10.5,4.71-10.5,10.5v39.019    c0,5.79,4.71,10.5,10.5,10.5h22.521v149.852c0,5.789,4.71,10.5,10.5,10.5h117.582c5.79,0,10.5-4.711,10.5-10.5v-19.441h51.377    c5.79,0,10.5-4.711,10.5-10.5v-7.807h113.255c5.79,0,10.5-4.71,10.5-10.5V159.537h22.522c5.79,0,10.5-4.71,10.5-10.5v-39.019    c0-5.79-4.71-10.5-10.5-10.5h-73.656l-10.656-8.071v-5.053c3.337-1.008,6.458-2.681,9.158-4.926h95.94V335.827z M479.721,461.579    c-6.045,0-10.963-4.918-10.963-10.964c0-1.033,0.151-2.03,0.42-2.979h21.087c0.269,0.949,0.42,1.946,0.42,2.979    C490.685,456.66,485.766,461.579,479.721,461.579z M497,432.636h-34.558v-3.962H497V432.636z" fill="#FFFFFF"/>
	</g>
</g>
<g>
</g>
<g>
</g>
<g>
</g>
<g>
</g>
<g>
</g>
<g>
</g>
<g>
</g>
<g>
</g>
<g>
</g>
<g>
</g>
<g>
</g>
<g>
</g>
<g>
</g>
<g>
</g>
<g>
</g>
</svg>
